<?xml version="1.0" encoding="UTF-8"?>
<svg xmlns="http://www.w3.org/2000/svg" viewBox="0 0 512 512" width="100%" height="100%">
    <!-- Shield Shape -->
    <path
        d="M256 21.52l-200 80v149.44C56 372.8 144.56 459.92 256 490.48c111.44-30.56 200-117.68 200-239.52V101.52l-200-80z"
        fill="#F59E0B" />
    <!-- Bitcoin Symbol -->
    <g transform="translate(256, 256)">
        <path
            d="M62.7 -72.33c4.24-28.35-17.33-43.58-46.87-53.77l9.57-38.38-23.36-5.82-9.32 37.33c-6.14-1.53-12.45-2.97-18.74-4.4l9.38-37.57-23.34-5.82-9.57 38.35c-5.08-1.16-10.08-2.3-14.9-3.5l.03-.11-32.23-8.05-6.22 24.9s17.33 3.97 16.97 4.22c9.47 2.36 11.18 8.62 10.9 13.58l-10.9 43.76c.65.17 1.5.4 2.42.77-.78-.19-1.61-.4-2.47-.6l-15.3 61.28c-1.16 2.88-4.1 7.21-10.73 5.56.23.34-16.98-4.24-16.98-4.24l-11.6 26.75 30.42 7.59c5.67 1.42 11.22 2.9 16.68 4.3l-9.67 38.84 23.32 5.82 9.58-38.4c6.37 1.73 12.55 3.33 18.62 4.84l-9.55 38.2 23.36 5.82 9.67-38.74c39.82 7.54 69.77 4.5 82.36-31.52 10.17-29.05-.5-45.82-21.48-56.72 15.28-3.52 26.8-13.59 29.87-34.38zm-53.4 75.02c-7.23 29.05-56.13 13.35-72 9.42l12.84-51.48c15.87 3.96 66.82 11.8 59.16 42.06zm7.23-75.51c-6.58 26.36-47.17 12.96-60.33 9.69l11.65-46.7c13.16 3.28 55.52 9.4 48.68 37.01z"
            fill="#FFFFFF" transform="rotate(-15) scale(1.15) translate(35, 45)" />
    </g>
</svg>