<svg xmlns="http://www.w3.org/2000/svg" viewBox="0 0 24 24" width="32" height="32">
    <!-- Shield outline -->
    <path d="M12 22s8-4 8-10V5l-8-3-8 3v7c0 6 8 10 8 10z" fill="transparent" stroke="#F59E0B" stroke-width="2" />

    <!-- Bitcoin symbol as simple path -->
    <path
        d="M14 8.7c.2-.6.1-1.5-.3-2-.7-.9-2-1.1-3.1-1V4h-1v1.7h-.8V4h-1v1.7H6v1h.8v8.6H6v1H7.8V18h1v-1.7h.8V18h1v-1.7c1.2-.1 2.2-.4 2.6-1.4.4-.9.2-2-.5-2.6.8-.5 1.2-1.5 1.3-2.6zm-5 0v-2h1.5c.6 0 1.3.1 1.5.8.2.6 0 1.1-.3 1.5-.4.5-1.2.6-1.8.6H9v-.9zm3 5.4c-.3.6-1 .9-1.6.9h-1.7v-2.2h1.5c.6 0 1.3 0 1.7.5.4.4.3 1.2.1 1.8z"
        fill="#F59E0B" />
</svg>